# xmcd
#
# Track frame offsets: 
#        150
#        1262
#        19583
#        43758
#        67234
#        87100
#        101512
#        138380
#        163637
#
# Disc length: 2599 seconds
#
# Revision: 1
# Processed by: cddbd v1.5.2PL0 Copyright (c) Steve Scherf et al.
# Submitted via: ExactAudioCopy v0.99pb5
#
DISCID=6c0a2509
DTITLE=Equiè  Castrillo  and  his  orchestra - Palladium  Tradition
DYEAR=2005
DGENRE=Salsa
TTITLE0=Intro
TTITLE1=Caribe
TTITLE2=Nutville
TTITLE3=I call your name
TTITLE4=Yeah
TTITLE5=Con calma
TTITLE6=Medley boleros
TTITLE7=Palo yaya
TTITLE8=Scoot'n
EXTD=YEAR: 2005
EXTT0=
EXTT1=
EXTT2=
EXTT3=
EXTT4=
EXTT5=
EXTT6=
EXTT7=
EXTT8=
PLAYORDER=
